<svg xmlns="http://www.w3.org/2000/svg" width="325" height="130" shape-rendering="geometricPrecision" image-rendering="optimizeQuality" fill-rule="evenodd" clip-rule="evenodd" viewBox="0 0 325000 130000"><path fill="#8dc63f" d="m232541 97410h66820v27592h11515v-27592h12763l1390-10388h-14153v-82108l-15413-828-62922 84114v9210m14660-10388l48937-67970 3223 346v67624h-52160m-85723-85474c-35043 0-63452 28409-63452 63452 0 35043 28409 63452 63452 63452 35043 0 63452-28409 63452-63452 0-35043-28409-63452-63452-63452m0 10802c29079 0 52649 23571 52649 52650 0 29078-23570 52649-52649 52649-29079 0-52650-23571-52650-52649 0-29079 23572-52650 52650-52650m22038 26138c-5303 0-9601 4298-9601 9601 0 5303 4298 9601 9601 9601 5303 0 9602-4298 9602-9601 0-5303-4299-9601-9602-9601m7344 51866c-5165-10208-18453-15628-29382-15628-10928 0-24217 5420-29382 15628 21706-10908 37058-10908 58764 0m-51421-51866c-5303 0-9601 4298-9601 9601 0 5303 4298 9601 9601 9601 5304 0 9602-4298 9602-9601 0-5303-4299-9601-9602-9601m-139469 58922h66821v27592h11515v-27592h12763l1390-10388h-14153v-82108l-15414-828-62922 84114v9210m14661-10388l48936-67970 3224 346v67624h-52160"/></svg>